<svg width="56" height="55" viewBox="0 0 56 55" fill="none" xmlns="http://www.w3.org/2000/svg">
<rect x="0.5" y="0.5" width="55" height="54" rx="27" fill="white"/>
<rect x="0.5" y="0.5" width="55" height="54" rx="27" stroke="#E45122"/>
<rect width="36" height="35" transform="translate(10 10)" fill="white"/>
<path d="M40 40.625V37.7083C40 36.1612 39.3679 34.6775 38.2426 33.5835C37.1174 32.4896 35.5913 31.875 34 31.875H22C20.4087 31.875 18.8826 32.4896 17.7574 33.5835C16.6321 34.6775 16 36.1612 16 37.7083V40.625M34 20.2083C34 23.43 31.3137 26.0417 28 26.0417C24.6863 26.0417 22 23.43 22 20.2083C22 16.9867 24.6863 14.375 28 14.375C31.3137 14.375 34 16.9867 34 20.2083Z" stroke="#1E1E1E" stroke-width="4" stroke-linecap="round" stroke-linejoin="round"/>
</svg>
